<svg width="1258" height="351" viewBox="0 0 1258 351" fill="none" xmlns="http://www.w3.org/2000/svg">
<path d="M1224.35 83.199C1224.35 83.199 1187.15 73.4088 1172.85 72.1455C1172.85 72.1455 1116.26 102.599 1100.39 112.841C1084.53 123.059 1081.5 138.444 1080.8 144.174L1161.58 84.8007H1224.9C1226.5 84.8007 1224.35 83.199 1224.35 83.199V83.199Z" fill="#2E261F"/>
<path d="M1117.23 44.1509C1089.51 44.1509 1070.39 55.3849 1070.39 55.3849H757.391C757.391 63.754 770.063 70.1605 784.862 70.1605H1006.35C1006.35 70.1605 953.399 70.1605 953.399 124.797V206.57C953.399 242.032 972.09 272.982 1002.68 290.825C1033.26 308.646 1048.6 307.293 1071.11 307.293V151.302C1071.11 137.564 1075.25 119.383 1093.54 107.201C1110.1 96.1702 1167.35 64.9496 1167.35 64.9496L1167.44 65.0398C1157.62 54.5502 1139.79 44.1509 1117.23 44.1509ZM1071.34 102.757V92.809L1106.82 73.2284L1122.41 74.4917L1071.32 102.757H1071.34ZM1137.26 74.8301C1134.13 74.8301 1131.58 72.281 1131.58 69.1454C1131.58 66.0098 1134.13 63.4833 1137.26 63.4833C1140.38 63.4833 1142.96 66.0324 1142.96 69.1454C1142.96 72.2584 1140.4 74.8301 1137.26 74.8301Z" fill="#2E261F"/>
<path d="M1160.22 68.8747C1149.91 60.1221 1133.68 52.1139 1114.4 52.1139V44.196L1117.23 44.1509C1139.75 44.1509 1157.51 54.4825 1167.33 64.9496L1160.22 68.8521V68.8747Z" fill="#DF1E12"/>
<path d="M1161.58 84.8007L1105.06 126.353C1105.06 126.353 1104.38 120.285 1112.88 113.427C1121.39 106.569 1172.85 72.1455 1172.85 72.1455L1161.58 84.8007V84.8007Z" fill="#DF1E12"/>
<path d="M1047.35 191.005V163.213C1047.35 151.528 1042.58 143.43 1031.67 135.76L985.464 103.208C980.282 108.848 977.137 116.427 977.137 124.842C977.137 135.331 982.183 144.625 989.944 150.535L1047.33 191.027L1047.35 191.005Z" fill="white"/>
<path d="M1047.35 191.005V163.213C1047.35 151.528 1042.58 143.43 1031.67 135.76L985.464 103.208C980.282 108.848 977.136 116.427 977.136 124.842C977.136 135.331 982.182 144.625 989.944 150.535L1047.33 191.027L1047.35 191.005Z" fill="white"/>
<path d="M1100.42 112.841C1116.28 102.599 1172.87 72.1455 1172.87 72.1455C1171.9 70.2281 1169.57 67.2955 1167.44 65.0397L1167.35 64.9495C1167.35 64.9495 1110.12 96.17 1093.54 107.201C1076.72 118.412 1071.88 134.654 1071.2 147.896L1071.11 151.302L1080.82 144.174C1081.52 138.444 1084.55 123.059 1100.42 112.841V112.841Z" fill="white"/>
<path d="M1137.26 63.4834C1140.4 63.4834 1142.96 66.0325 1142.96 69.1455C1142.96 72.2586 1140.4 74.8302 1137.26 74.8302C1134.11 74.8302 1131.58 72.2811 1131.58 69.1455C1131.58 66.0099 1134.13 63.4834 1137.26 63.4834Z" fill="white"/>
<path d="M1071.34 92.8091L1106.82 73.2285L1122.43 74.4918L1071.34 102.757V92.8091Z" fill="white"/>
<path d="M875.874 70.1606H1006.35C1006.35 70.1606 953.082 70.702 953.399 124.797L875.874 70.1606V70.1606Z" fill="#FFDD00"/>
<path d="M129.538 147.851C123.542 140.7 114.83 136.662 103.583 136.662C80.7283 136.662 63.87 155.205 63.87 180.673C63.87 206.141 80.7283 224.707 102.61 224.707C114.807 224.707 124.696 219.293 130.896 210.021L156.081 228.745C144.654 244.964 125.284 252.498 106.502 252.498C63.689 252.498 32.5068 224.504 32.5068 180.673C32.5068 136.842 63.689 108.848 106.502 108.848C121.799 108.848 141.169 114.059 152.8 128.924L129.561 147.851H129.538Z" fill="#2E261F"/>
<path d="M208.489 152.881C237.544 152.881 260.784 172.191 260.784 202.126C260.784 232.061 237.544 251.371 208.489 251.371C179.434 251.371 156.194 232.061 156.194 202.126C156.194 172.191 179.434 152.881 208.489 152.881ZM208.489 225.857C223.016 225.857 231.728 216.202 231.728 202.103C231.728 188.004 223.016 178.35 208.489 178.35C193.961 178.35 185.249 188.004 185.249 202.103C185.249 216.202 193.961 225.857 208.489 225.857Z" fill="#2E261F"/>
<path d="M271.532 155.182H300.587V170.251H300.972C307.172 158.859 315.296 152.881 328.081 152.881C331.384 152.881 335.05 153.084 337.766 153.851V180.312C333.693 179.162 329.642 178.372 325.365 178.372C303.28 178.372 300.564 191.118 300.564 209.841V249.025H271.509V155.182H271.532Z" fill="#2E261F"/>
<path d="M347.927 155.182H375.828V167.928H376.212C380.082 160.596 389.586 152.859 403.706 152.859C433.146 152.859 438.577 172.168 438.577 197.276V249.024H409.522V203.073C409.522 192.268 409.318 178.349 394.406 178.349C379.494 178.349 376.982 190.125 376.982 202.284V249.002H347.927V155.182Z" fill="#2E261F"/>
<path d="M538.594 232.805C529.294 244.58 513.997 251.348 498.904 251.348C469.849 251.348 446.609 232.038 446.609 202.103C446.609 172.168 469.849 152.859 498.904 152.859C526.013 152.859 543.052 172.168 543.052 202.103V211.172H475.664C477.995 222.18 486.322 229.308 497.546 229.308C507.028 229.308 513.431 224.481 518.274 217.917L538.617 232.782L538.594 232.805ZM513.997 191.478C514.201 181.823 506.643 173.725 496.166 173.725C483.381 173.725 476.411 182.41 475.642 191.478H513.997Z" fill="#2E261F"/>
<path d="M553.326 180.56V112.322H582.381V249.024H553.326V180.56V180.56Z" fill="#2E261F"/>
<path d="M599.42 180.56V112.322H628.475V249.024H599.42V180.56V180.56Z" fill="#2E261F"/>
<path d="M662.621 180.56V112.322H650.515V180.56V249.024H718.491V238.129H662.621V180.56Z" fill="#2E261F"/>
<path d="M797.149 190.102C797.103 167.68 783.458 158.25 761.848 158.205C750.421 158.205 736.685 162.559 728.222 170.432L734.558 177.853C742.478 171.199 751.416 167.95 761.825 167.95C776.24 167.973 787.305 174.267 787.35 189.922V195.674H773.457C764.654 195.674 752.299 196.351 742.184 200.412C732.069 204.472 724.239 211.803 724.217 225.271C724.217 243.949 740.238 251.348 755.444 251.371C770.47 251.371 779.974 246.047 786.536 234.745L786.626 234.587H787.554V234.926C787.554 239.821 787.916 244.716 788.663 249.07H798.846C797.533 238.964 797.149 229.106 797.149 211.961V190.148V190.102ZM787.373 210.563C787.373 218.052 785.766 225.79 780.992 231.7C776.24 237.61 768.32 241.603 755.852 241.603C746.076 241.603 735.192 235.918 735.169 224.662C735.237 209.029 754.879 204.246 774.249 204.246H787.373V210.563Z" fill="#2E261F"/>
<path d="M862.386 158.182C849.103 158.182 833.919 163.754 826.859 175.981L826.769 176.139H825.841V112.322H814.889V249.024H825.841V233.392H826.769L826.859 233.572C833.942 245.776 849.126 251.348 862.386 251.348C889.721 251.348 909.091 231.835 909.114 204.765C909.114 177.695 889.721 158.205 862.386 158.182V158.182ZM862.386 241.603C841.093 241.558 824.709 225.045 824.664 204.765C824.709 184.485 841.093 167.973 862.386 167.928C884.471 167.973 898.139 184.53 898.162 204.765C898.116 225 884.449 241.558 862.386 241.603Z" fill="#2E261F"/>
</svg>
